<mxfile host="app.diagrams.net" modified="2023-05-09T00:40:27.124Z" agent="Mozilla/5.0 (X11; Ubuntu; Linux x86_64; rv:109.0) Gecko/20100101 Firefox/112.0" etag="0PrSwwMtbkD8gxPwI89I" version="21.2.9" type="device">
  <diagram name="Page-1" id="xDtRW1M48yACG6FfvXQ6">
    <mxGraphModel dx="819" dy="449" grid="1" gridSize="10" guides="1" tooltips="1" connect="1" arrows="1" fold="1" page="1" pageScale="1" pageWidth="827" pageHeight="1169" math="0" shadow="0">
      <root>
        <mxCell id="0" />
        <mxCell id="1" parent="0" />
        <mxCell id="FF3H6SzlWtyYNkaYzkYv-1" value="Challenges" style="swimlane;whiteSpace=wrap;html=1;" vertex="1" parent="1">
          <mxGeometry x="70" y="110" width="200" height="240" as="geometry" />
        </mxCell>
        <mxCell id="FF3H6SzlWtyYNkaYzkYv-11" style="edgeStyle=orthogonalEdgeStyle;rounded=0;orthogonalLoop=1;jettySize=auto;html=1;" edge="1" parent="FF3H6SzlWtyYNkaYzkYv-1" source="FF3H6SzlWtyYNkaYzkYv-9" target="FF3H6SzlWtyYNkaYzkYv-10">
          <mxGeometry relative="1" as="geometry" />
        </mxCell>
        <mxCell id="FF3H6SzlWtyYNkaYzkYv-9" value="Public key" style="text;html=1;align=center;verticalAlign=middle;resizable=0;points=[];autosize=1;strokeColor=none;fillColor=none;" vertex="1" parent="FF3H6SzlWtyYNkaYzkYv-1">
          <mxGeometry x="10" y="80" width="80" height="30" as="geometry" />
        </mxCell>
        <mxCell id="FF3H6SzlWtyYNkaYzkYv-10" value="Key" style="text;html=1;align=center;verticalAlign=middle;resizable=0;points=[];autosize=1;strokeColor=none;fillColor=none;" vertex="1" parent="FF3H6SzlWtyYNkaYzkYv-1">
          <mxGeometry x="140" y="80" width="40" height="30" as="geometry" />
        </mxCell>
        <mxCell id="FF3H6SzlWtyYNkaYzkYv-2" value="Association Tokens" style="swimlane;whiteSpace=wrap;html=1;" vertex="1" parent="1">
          <mxGeometry x="300" y="110" width="250" height="240" as="geometry" />
        </mxCell>
        <mxCell id="FF3H6SzlWtyYNkaYzkYv-21" style="edgeStyle=orthogonalEdgeStyle;rounded=0;orthogonalLoop=1;jettySize=auto;html=1;entryX=0.002;entryY=0.126;entryDx=0;entryDy=0;entryPerimeter=0;" edge="1" parent="FF3H6SzlWtyYNkaYzkYv-2" source="FF3H6SzlWtyYNkaYzkYv-12" target="FF3H6SzlWtyYNkaYzkYv-13">
          <mxGeometry relative="1" as="geometry" />
        </mxCell>
        <mxCell id="FF3H6SzlWtyYNkaYzkYv-12" value="association_tokens" style="text;html=1;align=center;verticalAlign=middle;resizable=0;points=[];autosize=1;strokeColor=none;fillColor=none;" vertex="1" parent="FF3H6SzlWtyYNkaYzkYv-2">
          <mxGeometry y="80" width="120" height="30" as="geometry" />
        </mxCell>
        <mxCell id="FF3H6SzlWtyYNkaYzkYv-13" value="set" style="swimlane;fontStyle=0;childLayout=stackLayout;horizontal=1;startSize=30;horizontalStack=0;resizeParent=1;resizeParentMax=0;resizeLast=0;collapsible=1;marginBottom=0;whiteSpace=wrap;html=1;" vertex="1" parent="FF3H6SzlWtyYNkaYzkYv-2">
          <mxGeometry x="160" y="40" width="80" height="120" as="geometry" />
        </mxCell>
        <mxCell id="FF3H6SzlWtyYNkaYzkYv-14" value="token 1" style="text;strokeColor=none;fillColor=none;align=left;verticalAlign=middle;spacingLeft=4;spacingRight=4;overflow=hidden;points=[[0,0.5],[1,0.5]];portConstraint=eastwest;rotatable=0;whiteSpace=wrap;html=1;" vertex="1" parent="FF3H6SzlWtyYNkaYzkYv-13">
          <mxGeometry y="30" width="80" height="30" as="geometry" />
        </mxCell>
        <mxCell id="FF3H6SzlWtyYNkaYzkYv-15" value="token 2" style="text;strokeColor=none;fillColor=none;align=left;verticalAlign=middle;spacingLeft=4;spacingRight=4;overflow=hidden;points=[[0,0.5],[1,0.5]];portConstraint=eastwest;rotatable=0;whiteSpace=wrap;html=1;" vertex="1" parent="FF3H6SzlWtyYNkaYzkYv-13">
          <mxGeometry y="60" width="80" height="30" as="geometry" />
        </mxCell>
        <mxCell id="FF3H6SzlWtyYNkaYzkYv-16" value="token 3" style="text;strokeColor=none;fillColor=none;align=left;verticalAlign=middle;spacingLeft=4;spacingRight=4;overflow=hidden;points=[[0,0.5],[1,0.5]];portConstraint=eastwest;rotatable=0;whiteSpace=wrap;html=1;" vertex="1" parent="FF3H6SzlWtyYNkaYzkYv-13">
          <mxGeometry y="90" width="80" height="30" as="geometry" />
        </mxCell>
        <mxCell id="FF3H6SzlWtyYNkaYzkYv-7" value="Accounts" style="swimlane;whiteSpace=wrap;html=1;" vertex="1" parent="1">
          <mxGeometry x="580" y="110" width="220" height="240" as="geometry" />
        </mxCell>
        <mxCell id="FF3H6SzlWtyYNkaYzkYv-27" style="edgeStyle=orthogonalEdgeStyle;rounded=0;orthogonalLoop=1;jettySize=auto;html=1;entryX=0.033;entryY=0.119;entryDx=0;entryDy=0;entryPerimeter=0;" edge="1" parent="FF3H6SzlWtyYNkaYzkYv-7" source="FF3H6SzlWtyYNkaYzkYv-22" target="FF3H6SzlWtyYNkaYzkYv-23">
          <mxGeometry relative="1" as="geometry" />
        </mxCell>
        <mxCell id="FF3H6SzlWtyYNkaYzkYv-22" value="Public key" style="text;html=1;align=center;verticalAlign=middle;resizable=0;points=[];autosize=1;strokeColor=none;fillColor=none;" vertex="1" parent="FF3H6SzlWtyYNkaYzkYv-7">
          <mxGeometry x="10" y="80" width="80" height="30" as="geometry" />
        </mxCell>
        <mxCell id="FF3H6SzlWtyYNkaYzkYv-23" value="hash set" style="swimlane;fontStyle=0;childLayout=stackLayout;horizontal=1;startSize=30;horizontalStack=0;resizeParent=1;resizeParentMax=0;resizeLast=0;collapsible=1;marginBottom=0;whiteSpace=wrap;html=1;" vertex="1" parent="FF3H6SzlWtyYNkaYzkYv-7">
          <mxGeometry x="130" y="30" width="80" height="180" as="geometry" />
        </mxCell>
        <mxCell id="FF3H6SzlWtyYNkaYzkYv-24" value="pk" style="text;strokeColor=none;fillColor=none;align=left;verticalAlign=middle;spacingLeft=4;spacingRight=4;overflow=hidden;points=[[0,0.5],[1,0.5]];portConstraint=eastwest;rotatable=0;whiteSpace=wrap;html=1;" vertex="1" parent="FF3H6SzlWtyYNkaYzkYv-23">
          <mxGeometry y="30" width="80" height="30" as="geometry" />
        </mxCell>
        <mxCell id="FF3H6SzlWtyYNkaYzkYv-25" value="alias" style="text;strokeColor=none;fillColor=none;align=left;verticalAlign=middle;spacingLeft=4;spacingRight=4;overflow=hidden;points=[[0,0.5],[1,0.5]];portConstraint=eastwest;rotatable=0;whiteSpace=wrap;html=1;" vertex="1" parent="FF3H6SzlWtyYNkaYzkYv-23">
          <mxGeometry y="60" width="80" height="30" as="geometry" />
        </mxCell>
        <mxCell id="FF3H6SzlWtyYNkaYzkYv-26" value="bio" style="text;strokeColor=none;fillColor=none;align=left;verticalAlign=middle;spacingLeft=4;spacingRight=4;overflow=hidden;points=[[0,0.5],[1,0.5]];portConstraint=eastwest;rotatable=0;whiteSpace=wrap;html=1;" vertex="1" parent="FF3H6SzlWtyYNkaYzkYv-23">
          <mxGeometry y="90" width="80" height="30" as="geometry" />
        </mxCell>
        <mxCell id="FF3H6SzlWtyYNkaYzkYv-28" value="contact" style="text;strokeColor=none;fillColor=none;align=left;verticalAlign=middle;spacingLeft=4;spacingRight=4;overflow=hidden;points=[[0,0.5],[1,0.5]];portConstraint=eastwest;rotatable=0;whiteSpace=wrap;html=1;" vertex="1" parent="FF3H6SzlWtyYNkaYzkYv-23">
          <mxGeometry y="120" width="80" height="30" as="geometry" />
        </mxCell>
        <mxCell id="FF3H6SzlWtyYNkaYzkYv-29" value="cutom" style="text;strokeColor=none;fillColor=none;align=left;verticalAlign=middle;spacingLeft=4;spacingRight=4;overflow=hidden;points=[[0,0.5],[1,0.5]];portConstraint=eastwest;rotatable=0;whiteSpace=wrap;html=1;" vertex="1" parent="FF3H6SzlWtyYNkaYzkYv-23">
          <mxGeometry y="150" width="80" height="30" as="geometry" />
        </mxCell>
        <mxCell id="FF3H6SzlWtyYNkaYzkYv-8" value="" style="image;sketch=0;aspect=fixed;html=1;points=[];align=center;fontSize=12;image=img/lib/mscae/Cache_Redis_Product.svg;" vertex="1" parent="1">
          <mxGeometry x="60" y="40" width="50" height="42" as="geometry" />
        </mxCell>
      </root>
    </mxGraphModel>
  </diagram>
</mxfile>
